<?xml version="1.0" encoding="UTF-8"?>
<svg id="Layer_1" data-name="Layer 1" xmlns="http://www.w3.org/2000/svg" xmlns:xlink="http://www.w3.org/1999/xlink" viewBox="0 0 146.96 160.49">
  <defs>
    <linearGradient id="linear-gradient" x1="8.88" y1="73.19" x2="137.88" y2="73.19" gradientUnits="userSpaceOnUse">
      <stop offset="0" stop-color="#ffb069"/>
      <stop offset="1" stop-color="#ff789a"/>
    </linearGradient>
    <linearGradient id="linear-gradient-2" x1="8.38" x2="138.38" xlink:href="#linear-gradient"/>
    <linearGradient id="linear-gradient-3" x1="0" y1="73.48" x2="146.96" y2="73.48" xlink:href="#linear-gradient"/>
    <clipPath id="clippath">
      <circle cx="73.09" cy="72.48" r="64.5" fill="none"/>
    </clipPath>
    <linearGradient id="linear-gradient-4" x1="101.2" y1="93.33" x2="109.25" y2="93.33" xlink:href="#linear-gradient"/>
    <linearGradient id="linear-gradient-5" x1="100.6" y1="123.05" x2="107.98" y2="123.05" xlink:href="#linear-gradient"/>
    <linearGradient id="linear-gradient-6" x1="-546.07" y1="-377.27" x2="-524.62" y2="-377.27" gradientTransform="translate(-420.96 -272.75) rotate(-180)" xlink:href="#linear-gradient"/>
    <linearGradient id="linear-gradient-7" x1="-274.19" y1="238.05" x2="-252.73" y2="238.05" gradientTransform="translate(12.87 -250.47) rotate(-60)" xlink:href="#linear-gradient"/>
    <linearGradient id="linear-gradient-8" x1="122.75" y1="-305.07" x2="144.21" y2="-305.07" gradientTransform="translate(-223.35 114.09) rotate(60)" xlink:href="#linear-gradient"/>
    <linearGradient id="linear-gradient-9" x1="98.65" y1="92.79" x2="106.29" y2="92.79" xlink:href="#linear-gradient"/>
    <linearGradient id="linear-gradient-10" x1="50.08" y1="92.16" x2="58.13" y2="92.16" xlink:href="#linear-gradient"/>
    <linearGradient id="linear-gradient-11" x1="49.49" y1="121.88" x2="56.86" y2="121.88" xlink:href="#linear-gradient"/>
    <linearGradient id="linear-gradient-12" x1="-494.96" y1="-376.1" x2="-473.5" y2="-376.1" gradientTransform="translate(-420.96 -272.75) rotate(-180)" xlink:href="#linear-gradient"/>
    <linearGradient id="linear-gradient-13" x1="-298.73" y1="193.19" x2="-277.27" y2="193.19" gradientTransform="translate(12.87 -250.47) rotate(-60)" xlink:href="#linear-gradient"/>
    <linearGradient id="linear-gradient-14" x1="96.18" y1="-261.39" x2="117.63" y2="-261.39" gradientTransform="translate(-223.35 114.09) rotate(60)" xlink:href="#linear-gradient"/>
    <linearGradient id="linear-gradient-15" x1="47.53" y1="91.61" x2="55.17" y2="91.61" xlink:href="#linear-gradient"/>
    <linearGradient id="linear-gradient-16" x1="68.72" y1="71.52" x2="80.35" y2="71.52" xlink:href="#linear-gradient"/>
    <linearGradient id="linear-gradient-17" x1="67.84" y1="116.32" x2="78.42" y2="116.32" xlink:href="#linear-gradient"/>
    <linearGradient id="linear-gradient-18" x1="38.38" y1="53.05" x2="70.21" y2="53.05" gradientTransform="translate(142.64 141.44) rotate(-180)" xlink:href="#linear-gradient"/>
    <linearGradient id="linear-gradient-19" x1="38.38" y1="53.05" x2="70.21" y2="53.05" gradientTransform="translate(-25.59 97.12) rotate(-60)" xlink:href="#linear-gradient"/>
    <linearGradient id="linear-gradient-20" x1="38.38" y1="53.05" x2="70.21" y2="53.05" gradientTransform="translate(96.9 -26.4) rotate(60)" xlink:href="#linear-gradient"/>
    <linearGradient id="linear-gradient-21" x1="64.88" y1="70.71" x2="75.89" y2="70.71" xlink:href="#linear-gradient"/>
  </defs>
  <g>
    <circle cx="73.38" cy="73.19" r="64.5" fill="url(#linear-gradient)" stroke="url(#linear-gradient-2)" stroke-miterlimit="10"/>
    <circle cx="73.48" cy="73.48" r="72.98" fill="none" stroke="url(#linear-gradient-3)" stroke-miterlimit="10"/>
  </g>
  <g clip-path="url(#clippath)">
    <g>
      <g>
        <path d="M108.69,94.28c-.46,1.31-1.57,2.11-2.48,1.79l-3.44-.73-.07-.02c-.91-.32-1.27-1.64-.81-2.95s1.57-2.11,2.48-1.79l1.31.42.07.02c.91.32,3.4,1.96,2.94,3.26Z" fill="#fff" stroke="url(#linear-gradient-4)" stroke-linecap="round" stroke-miterlimit="10"/>
        <polygon points="107.45 152.02 101.12 152.02 102.73 94.08 105.09 94.08 107.45 152.02" fill="#fff" stroke="url(#linear-gradient-5)" stroke-linecap="round" stroke-miterlimit="10"/>
        <g>
          <path d="M124.5,115.37l-18.71-22.29c-.16-.19-.45-.22-.65-.05l-.84.72c-.18.15-.21.41-.08.6l1.32,1.89c.06.09.09.19.08.3h0c-.16,1.9.59,3.77,2.02,5.03l16.2,14.42c.12.11.29.14.44.09h0c.31-.1.42-.48.21-.73Z" fill="#fff" stroke="url(#linear-gradient-6)" stroke-linecap="round" stroke-miterlimit="10"/>
          <path d="M72.83,100.06l28.66-5.06c.25-.04.42-.28.37-.53l-.21-1.09c-.04-.23-.25-.39-.49-.37l-2.3.19c-.11,0-.21-.02-.3-.08h0c-1.57-1.09-3.56-1.37-5.37-.77l-20.59,6.82c-.15.05-.27.18-.3.33h0c-.07.32.2.6.52.55Z" fill="#fff" stroke="url(#linear-gradient-7)" stroke-linecap="round" stroke-miterlimit="10"/>
          <path d="M111.93,62.96l-9.95,27.35c-.09.24.04.5.28.59l1.05.36c.22.08.46-.03.56-.24l.98-2.09c.04-.1.12-.17.22-.22h0c1.72-.82,2.97-2.39,3.35-4.26l4.39-21.24c.03-.16-.02-.32-.14-.43h0c-.24-.22-.63-.13-.74.18Z" fill="#fff" stroke="url(#linear-gradient-8)" stroke-linecap="round" stroke-miterlimit="10"/>
        </g>
        <path d="M105.66,93.63c-.43,1.23-1.77,1.87-3,1.44s-3.89-2.44-3.46-3.66,3.8-1.21,5.02-.78,1.87,1.77,1.44,3Z" fill="#fff" stroke="url(#linear-gradient-9)" stroke-linecap="round" stroke-miterlimit="10"/>
      </g>
      <g>
        <path d="M57.58,93.11c-.46,1.31-1.57,2.11-2.48,1.79l-3.44-.73-.07-.02c-.91-.32-1.27-1.64-.81-2.95s1.57-2.11,2.48-1.79l1.31.42.07.02c.91.32,3.4,1.96,2.94,3.26Z" fill="#fff" stroke="url(#linear-gradient-10)" stroke-linecap="round" stroke-miterlimit="10"/>
        <polygon points="56.34 150.85 50 150.85 51.61 92.91 53.98 92.91 56.34 150.85" fill="#fff" stroke="url(#linear-gradient-11)" stroke-linecap="round" stroke-miterlimit="10"/>
        <g>
          <path d="M73.39,114.19l-18.71-22.29c-.16-.19-.45-.22-.65-.05l-.84.72c-.18.15-.21.41-.08.6l1.32,1.89c.06.09.09.19.08.3h0c-.16,1.9.59,3.77,2.02,5.03l16.2,14.42c.12.11.29.14.44.09h0c.31-.1.42-.48.21-.73Z" fill="#fff" stroke="url(#linear-gradient-12)" stroke-linecap="round" stroke-miterlimit="10"/>
          <path d="M21.72,98.88l28.66-5.06c.25-.04.42-.28.37-.53l-.21-1.09c-.04-.23-.25-.39-.49-.37l-2.3.19c-.11,0-.21-.02-.3-.08h0c-1.57-1.09-3.56-1.37-5.37-.77l-20.59,6.82c-.15.05-.27.18-.3.33h0c-.07.32.2.6.52.55Z" fill="#fff" stroke="url(#linear-gradient-13)" stroke-linecap="round" stroke-miterlimit="10"/>
          <path d="M60.81,61.79l-9.95,27.35c-.09.24.04.5.28.59l1.05.36c.22.08.46-.03.56-.24l.98-2.09c.04-.1.12-.17.22-.22h0c1.72-.82,2.97-2.39,3.35-4.26l4.39-21.24c.03-.16-.02-.32-.14-.43h0c-.24-.22-.63-.13-.74.18Z" fill="#fff" stroke="url(#linear-gradient-14)" stroke-linecap="round" stroke-miterlimit="10"/>
        </g>
        <path d="M54.54,92.46c-.43,1.23-1.77,1.87-3,1.44s-3.89-2.44-3.46-3.66,3.8-1.21,5.02-.78,1.87,1.77,1.44,3Z" fill="#fff" stroke="url(#linear-gradient-15)" stroke-linecap="round" stroke-miterlimit="10"/>
      </g>
      <g>
        <path d="M79.77,72.96c-.69,1.97-2.36,3.18-3.73,2.7l-5.19-1.1-.1-.03c-1.37-.48-1.92-2.47-1.23-4.44s2.36-3.18,3.73-2.7l1.98.63.1.03c1.37.48,5.12,2.95,4.43,4.92Z" fill="#fff" stroke="url(#linear-gradient-16)" stroke-linecap="round" stroke-miterlimit="10"/>
        <polygon points="77.9 159.99 68.35 159.99 70.78 72.66 74.34 72.66 77.9 159.99" fill="#fff" stroke="url(#linear-gradient-17)" stroke-linecap="round" stroke-miterlimit="10"/>
        <g>
          <path d="M103.6,104.74l-28.2-33.59c-.25-.29-.69-.33-.97-.08l-1.26,1.09c-.26.23-.31.62-.11.91l1.98,2.85c.09.13.13.29.12.45h0c-.24,2.87.89,5.68,3.04,7.59l24.43,21.74c.18.16.43.21.66.14h0c.47-.15.64-.72.32-1.1Z" fill="#fff" stroke="url(#linear-gradient-18)" stroke-linecap="round" stroke-miterlimit="10"/>
          <path d="M25.71,81.66l43.2-7.63c.38-.07.63-.43.55-.81l-.32-1.64c-.07-.34-.38-.58-.73-.55l-3.46.29c-.16.01-.32-.03-.45-.12h0c-2.36-1.64-5.36-2.07-8.09-1.16l-31.04,10.29c-.23.08-.4.27-.45.5h0c-.11.48.31.91.79.83Z" fill="#fff" stroke="url(#linear-gradient-19)" stroke-linecap="round" stroke-miterlimit="10"/>
          <path d="M84.64,25.75l-14.99,41.22c-.13.36.06.76.42.88l1.58.54c.33.11.7-.04.84-.36l1.48-3.14c.07-.14.18-.26.33-.33h0c2.6-1.23,4.47-3.61,5.05-6.42l6.61-32.02c.05-.24-.03-.48-.21-.64h0c-.36-.33-.94-.19-1.11.27Z" fill="#fff" stroke="url(#linear-gradient-20)" stroke-linecap="round" stroke-miterlimit="10"/>
        </g>
        <path d="M75.19,71.98c-.65,1.85-2.67,2.82-4.52,2.17s-5.87-3.67-5.22-5.52,5.72-1.82,7.57-1.18,2.82,2.67,2.17,4.52Z" fill="#fff" stroke="url(#linear-gradient-21)" stroke-linecap="round" stroke-miterlimit="10"/>
      </g>
    </g>
  </g>
</svg>