<?xml version="1.0" encoding="UTF-8"?>
<svg id="Icons" xmlns="http://www.w3.org/2000/svg" xmlns:xlink="http://www.w3.org/1999/xlink" viewBox="0 0 2047.51 1669">
  <defs>
    <linearGradient id="linear-gradient" x1="764.79" y1="891.71" x2="893.79" y2="891.71" gradientUnits="userSpaceOnUse">
      <stop offset="0" stop-color="#ffb069"/>
      <stop offset="1" stop-color="#ff789a"/>
    </linearGradient>
    <linearGradient id="linear-gradient-2" x1="764.29" x2="894.29" xlink:href="#linear-gradient"/>
    <linearGradient id="linear-gradient-3" x1="755.92" y1="892" x2="902.87" y2="892" xlink:href="#linear-gradient"/>
    <clipPath id="clippath">
      <circle cx="829.01" cy="891" r="64.5" fill="none"/>
    </clipPath>
    <linearGradient id="linear-gradient-4" x1="857.11" y1="911.85" x2="865.17" y2="911.85" xlink:href="#linear-gradient"/>
    <linearGradient id="linear-gradient-5" x1="856.52" y1="941.57" x2="863.89" y2="941.57" xlink:href="#linear-gradient"/>
    <linearGradient id="linear-gradient-6" x1="724.75" y1="915.25" x2="746.21" y2="915.25" gradientTransform="translate(1605.77 1838.29) rotate(-180)" xlink:href="#linear-gradient"/>
    <linearGradient id="linear-gradient-7" x1="815.7" y1="952.11" x2="837.16" y2="952.11" gradientTransform="translate(-394.56 1154.89) rotate(-60)" xlink:href="#linear-gradient"/>
    <linearGradient id="linear-gradient-8" x1="802.14" y1="854.91" x2="823.6" y2="854.91" gradientTransform="translate(1197.45 -235.75) rotate(60)" xlink:href="#linear-gradient"/>
    <linearGradient id="linear-gradient-9" x1="854.56" y1="911.31" x2="862.2" y2="911.31" xlink:href="#linear-gradient"/>
    <linearGradient id="linear-gradient-10" x1="806" y1="910.68" x2="814.05" y2="910.68" xlink:href="#linear-gradient"/>
    <linearGradient id="linear-gradient-11" x1="805.4" y1="940.4" x2="812.78" y2="940.4" xlink:href="#linear-gradient"/>
    <linearGradient id="linear-gradient-12" x1="775.87" y1="916.42" x2="797.32" y2="916.42" gradientTransform="translate(1605.77 1838.29) rotate(-180)" xlink:href="#linear-gradient"/>
    <linearGradient id="linear-gradient-13" x1="791.16" y1="907.25" x2="812.62" y2="907.25" gradientTransform="translate(-394.56 1154.89) rotate(-60)" xlink:href="#linear-gradient"/>
    <linearGradient id="linear-gradient-14" x1="775.57" y1="898.59" x2="797.03" y2="898.59" gradientTransform="translate(1197.45 -235.75) rotate(60)" xlink:href="#linear-gradient"/>
    <linearGradient id="linear-gradient-15" x1="803.45" y1="910.14" x2="811.09" y2="910.14" xlink:href="#linear-gradient"/>
    <linearGradient id="linear-gradient-16" x1="824.64" y1="890.05" x2="836.27" y2="890.05" xlink:href="#linear-gradient"/>
    <linearGradient id="linear-gradient-17" x1="823.75" y1="934.84" x2="834.34" y2="934.84" xlink:href="#linear-gradient"/>
    <linearGradient id="linear-gradient-18" x1="794.29" y1="871.58" x2="826.13" y2="871.58" gradientTransform="translate(1654.47 1778.48) rotate(-180)" xlink:href="#linear-gradient"/>
    <linearGradient id="linear-gradient-19" x1="794.29" y1="871.58" x2="826.13" y2="871.58" gradientTransform="translate(-356.49 1161.03) rotate(-60)" xlink:href="#linear-gradient"/>
    <linearGradient id="linear-gradient-20" x1="794.29" y1="871.58" x2="826.13" y2="871.58" gradientTransform="translate(1183.72 -271.78) rotate(60)" xlink:href="#linear-gradient"/>
    <linearGradient id="linear-gradient-21" x1="820.79" y1="889.23" x2="831.81" y2="889.23" xlink:href="#linear-gradient"/>
  </defs>
  <g>
    <circle cx="829.29" cy="891.71" r="64.5" fill="url(#linear-gradient)" stroke="url(#linear-gradient-2)" stroke-miterlimit="10"/>
    <circle cx="829.39" cy="892" r="72.98" fill="none" stroke="url(#linear-gradient-3)" stroke-miterlimit="10"/>
  </g>
  <g clip-path="url(#clippath)">
    <g>
      <g>
        <path d="M864.61,912.8c-.46,1.31-1.57,2.11-2.48,1.79l-3.44-.73-.07-.02c-.91-.32-1.27-1.64-.81-2.95s1.57-2.11,2.48-1.79l1.31.42.07.02c.91.32,3.4,1.96,2.94,3.26Z" fill="#fff" stroke="url(#linear-gradient-4)" stroke-linecap="round" stroke-miterlimit="10"/>
        <polygon points="863.37 970.54 857.03 970.54 858.64 912.6 861.01 912.6 863.37 970.54" fill="#fff" stroke="url(#linear-gradient-5)" stroke-linecap="round" stroke-miterlimit="10"/>
        <g>
          <path d="M880.42,933.89l-18.71-22.29c-.16-.19-.45-.22-.65-.05l-.84.72c-.18.15-.21.41-.08.6l1.32,1.89c.06.09.09.19.08.3h0c-.16,1.9.59,3.77,2.02,5.03l16.2,14.42c.12.11.29.14.44.09h0c.31-.1.42-.48.21-.73Z" fill="#fff" stroke="url(#linear-gradient-6)" stroke-linecap="round" stroke-miterlimit="10"/>
          <path d="M828.75,918.58l28.66-5.06c.25-.04.42-.28.37-.53l-.21-1.09c-.04-.23-.25-.39-.49-.37l-2.3.19c-.11,0-.21-.02-.3-.08h0c-1.57-1.09-3.56-1.37-5.37-.77l-20.59,6.82c-.15.05-.27.18-.3.33h0c-.07.32.2.6.52.55Z" fill="#fff" stroke="url(#linear-gradient-7)" stroke-linecap="round" stroke-miterlimit="10"/>
          <path d="M867.84,881.49l-9.95,27.35c-.09.24.04.5.28.59l1.05.36c.22.08.46-.03.56-.24l.98-2.09c.04-.1.12-.17.22-.22h0c1.72-.82,2.97-2.39,3.35-4.26l4.39-21.24c.03-.16-.02-.32-.14-.43h0c-.24-.22-.63-.13-.74.18Z" fill="#fff" stroke="url(#linear-gradient-8)" stroke-linecap="round" stroke-miterlimit="10"/>
        </g>
        <path d="M861.57,912.15c-.43,1.23-1.77,1.87-3,1.44s-3.89-2.44-3.46-3.66,3.8-1.21,5.02-.78,1.87,1.77,1.44,3Z" fill="#fff" stroke="url(#linear-gradient-9)" stroke-linecap="round" stroke-miterlimit="10"/>
      </g>
      <g>
        <path d="M813.49,911.63c-.46,1.31-1.57,2.11-2.48,1.79l-3.44-.73-.07-.02c-.91-.32-1.27-1.64-.81-2.95s1.57-2.11,2.48-1.79l1.31.42.07.02c.91.32,3.4,1.96,2.94,3.26Z" fill="#fff" stroke="url(#linear-gradient-10)" stroke-linecap="round" stroke-miterlimit="10"/>
        <polygon points="812.25 969.37 805.92 969.37 807.53 911.43 809.89 911.43 812.25 969.37" fill="#fff" stroke="url(#linear-gradient-11)" stroke-linecap="round" stroke-miterlimit="10"/>
        <g>
          <path d="M829.3,932.72l-18.71-22.29c-.16-.19-.45-.22-.65-.05l-.84.72c-.18.15-.21.41-.08.6l1.32,1.89c.06.09.09.19.08.3h0c-.16,1.9.59,3.77,2.02,5.03l16.2,14.42c.12.11.29.14.44.09h0c.31-.1.42-.48.21-.73Z" fill="#fff" stroke="url(#linear-gradient-12)" stroke-linecap="round" stroke-miterlimit="10"/>
          <path d="M777.63,917.4l28.66-5.06c.25-.04.42-.28.37-.53l-.21-1.09c-.04-.23-.25-.39-.49-.37l-2.3.19c-.11,0-.21-.02-.3-.08h0c-1.57-1.09-3.56-1.37-5.37-.77l-20.59,6.82c-.15.05-.27.18-.3.33h0c-.07.32.2.6.52.55Z" fill="#fff" stroke="url(#linear-gradient-13)" stroke-linecap="round" stroke-miterlimit="10"/>
          <path d="M816.73,880.31l-9.95,27.35c-.09.24.04.5.28.59l1.05.36c.22.08.46-.03.56-.24l.98-2.09c.04-.1.12-.17.22-.22h0c1.72-.82,2.97-2.39,3.35-4.26l4.39-21.24c.03-.16-.02-.32-.14-.43h0c-.24-.22-.63-.13-.74.18Z" fill="#fff" stroke="url(#linear-gradient-14)" stroke-linecap="round" stroke-miterlimit="10"/>
        </g>
        <path d="M810.46,910.98c-.43,1.23-1.77,1.87-3,1.44s-3.89-2.44-3.46-3.66,3.8-1.21,5.02-.78,1.87,1.77,1.44,3Z" fill="#fff" stroke="url(#linear-gradient-15)" stroke-linecap="round" stroke-miterlimit="10"/>
      </g>
      <g>
        <path d="M835.69,891.48c-.69,1.97-2.36,3.18-3.73,2.7l-5.19-1.1-.1-.03c-1.37-.48-1.92-2.47-1.23-4.44s2.36-3.18,3.73-2.7l1.98.63.1.03c1.37.48,5.12,2.95,4.43,4.92Z" fill="#fff" stroke="url(#linear-gradient-16)" stroke-linecap="round" stroke-miterlimit="10"/>
        <polygon points="833.82 978.51 824.27 978.51 826.69 891.18 830.25 891.18 833.82 978.51" fill="#fff" stroke="url(#linear-gradient-17)" stroke-linecap="round" stroke-miterlimit="10"/>
        <g>
          <path d="M859.51,923.26l-28.2-33.59c-.25-.29-.69-.33-.97-.08l-1.26,1.09c-.26.23-.31.62-.11.91l1.98,2.85c.09.13.13.29.12.45h0c-.24,2.87.89,5.68,3.04,7.59l24.43,21.74c.18.16.43.21.66.14h0c.47-.15.64-.72.32-1.1Z" fill="#fff" stroke="url(#linear-gradient-18)" stroke-linecap="round" stroke-miterlimit="10"/>
          <path d="M781.63,900.18l43.2-7.63c.38-.07.63-.43.55-.81l-.32-1.64c-.07-.34-.38-.58-.73-.55l-3.46.29c-.16.01-.32-.03-.45-.12h0c-2.36-1.64-5.36-2.07-8.09-1.16l-31.04,10.29c-.23.08-.4.27-.45.5h0c-.11.48.31.91.79.83Z" fill="#fff" stroke="url(#linear-gradient-19)" stroke-linecap="round" stroke-miterlimit="10"/>
          <path d="M840.56,844.28l-14.99,41.22c-.13.36.06.76.42.88l1.58.54c.33.11.7-.04.84-.36l1.48-3.14c.07-.14.18-.26.33-.33h0c2.6-1.23,4.47-3.61,5.05-6.42l6.61-32.02c.05-.24-.03-.48-.21-.64h0c-.36-.33-.94-.19-1.11.27Z" fill="#fff" stroke="url(#linear-gradient-20)" stroke-linecap="round" stroke-miterlimit="10"/>
        </g>
        <path d="M831.11,890.5c-.65,1.85-2.67,2.82-4.52,2.17s-5.87-3.67-5.22-5.52,5.72-1.82,7.57-1.18,2.82,2.67,2.17,4.52Z" fill="#fff" stroke="url(#linear-gradient-21)" stroke-linecap="round" stroke-miterlimit="10"/>
      </g>
    </g>
  </g>
</svg>