<?xml version="1.0" encoding="UTF-8"?>
<svg id="a" xmlns="http://www.w3.org/2000/svg" xmlns:xlink="http://www.w3.org/1999/xlink" viewBox="0 0 233.86 224.27">
  <defs>
    <linearGradient id="linear-gradient" x1="10.08" y1="112.13" x2="233.86" y2="112.13" gradientUnits="userSpaceOnUse">
      <stop offset="0" stop-color="#ffb069"/>
      <stop offset="1" stop-color="#ff789a"/>
    </linearGradient>
    <linearGradient id="linear-gradient-2" x1="0" y1="38.65" x2="123.49" y2="38.65" xlink:href="#linear-gradient"/>
  </defs>
  <path d="M81.67,7.82l-.29.11.22.57s.29-.11.29-.11c45.9-17.95,101.62-.53,128.85,40.5,28.18,39.72,24.56,97.65-8.43,133.42-17.59,19.44-39.29,30.46-61.68,34.23l-1.07-6.99c.43,1.77.86,3.53,1.3,5.29l.55-.08-.02-.31c-1.01-17.86-3.09-35.57-5.37-53.28-1.59-12.77-4.61-29.73-7.14-44.04.06-.09.11-.18.16-.27.27.37.59.81.59.81.34.15.97.51,1.38.85,1.72,1.29,1.4,2.28,2.34,4.16,3.5,4.91,8.84,7.75,14.4,9.55,10.7,2.88,21.59,5.11,32.61,6.47,4.56.6,9.51,1.36,14.05,2.22,2.29.84,3.78-2.42,1.49-3.4-11.04-4.15-21.54-9.58-32.28-14.41l-30.75-13.46c.2-.72.22-1.48-.13-2.27-1.05-1.99-2.47-3.62-4.12-4.94.57-.87,1.34-1.63,2.25-1.98,3.05-1.29,4.63-4.65,6.06-7.24,4.14-8,3.79-17.5,4.65-26.25.87-11.96.15-24.12.71-36.12,0-.43.1-.83-.02-1.41-.39-1.81-3.22-1.76-3.52.03-2.73,12.63-6.81,24.92-10.24,37.36l-8.45,31.63c-1.04-.25-2.09-.44-3.14-.58-10.55-1.09-11.51,6.8-5.29,13.49.27.29.58.6.9.92-.78.53-2.04,1.04-2.99,1.09-.74.06-1.46-.13-2.14-.33-.99-.21-2.03-.11-2.88.04-10.49,2.11-17.21,10.59-24.27,17.85-7.73,8.12-14.34,17.41-21.85,25.76-1.96,1.56,0,4.54,2.09,3.08,9.42-7.49,19.66-13.86,29.51-20.75l29.36-20.96-.05-.76c1.06.56,2.15,1.01,3.22,1.31.48,28.99,1.42,75.01,2.03,99.38-52.75.88-104.69-36.57-111.44-97.42-1.45-12.05-.78-24.33,1.69-36.23l.06-.3-.58-.14c-6.89,23.7-5.31,50.01,4.63,73.03,40.51,91.65,168.4,88.83,206.65-3.14C261.69,62.58,173.43-27.41,81.67,7.82Z" fill="url(#linear-gradient)"/>
  <path d="M17.07,74.04c35.55-6.51,106.2-21.96,106.21-21.97h0c.76-3.42-.53-6.96-3.3-9.09-4.68-3.61-9.35-7.23-14.07-10.8,0,0-18.52-14.13-18.67-14.23,0,0,0,0,0,0h0c-2.02-.08-4,.48-5.67,1.62-18.57,12.68-50.48,34.68-71.36,49.18.11-.15.23-.3.34-.45,4.76-3.36,9.45-6.8,14.17-10.21,9.47-6.79,18.64-13.93,28.11-20.73,4.77-3.34,9.26-7.03,13.46-11.07,0,0,.01-.01.01-.02h0c.55-2.1.31-4.32-.69-6.25-2.14-4.14-7.34-12.27-7.34-12.27L16.82,59.94C30.35,42.02,43.98,24.18,57.4,6.17c0-.01.01-.03,0-.04h0c-.4-1.04-1.32-1.78-2.42-1.94L32.47.94c-1.99-.29-3.93.76-4.77,2.58C17.57,25.38,7.99,48.04.19,70.95c-.57,1.67.15,3.52,1.69,4.38h0s0,0,0,0c.04.04,1.14,1.19,1.89,1.06.29.16,9.12-1.6,13.29-2.35Z" fill="url(#linear-gradient-2)"/>
</svg>